<?xml version="1.0" standalone="no"?>
<!DOCTYPE svg PUBLIC "-//W3C//DTD SVG 20010904//EN"
 "http://www.w3.org/TR/2001/REC-SVG-20010904/DTD/svg10.dtd">
<svg version="1.0" xmlns="http://www.w3.org/2000/svg"
 width="3000.000000pt" height="800.000000pt" viewBox="0 0 3000.000000 800.000000"
 preserveAspectRatio="xMidYMid meet">
<metadata>
Created by potrace 1.11, written by Peter Selinger 2001-2013
</metadata>
<g transform="translate(0.000000,800.000000) scale(0.100000,-0.100000)"
fill="#ffffff" stroke="none">
<path d="M10095 7853 c-74 -9 -235 -47 -293 -69 -35 -13 -69 -21 -75 -17 -5 3
-7 2 -4 -4 3 -5 -7 -17 -23 -26 -55 -33 -80 -73 -80 -131 0 -45 5 -60 34 -98
19 -24 65 -70 104 -101 119 -98 158 -146 182 -226 20 -66 21 -86 17 -333 -4
-245 -6 -272 -34 -403 -46 -214 -89 -281 -198 -309 -63 -17 -115 -21 -115 -8
0 4 -62 4 -137 0 -126 -6 -161 -13 -411 -77 -411 -106 -524 -167 -735 -396
-157 -170 -194 -218 -228 -290 -27 -59 -75 -268 -99 -430 -6 -44 -21 -138 -32
-210 -24 -151 -21 -268 10 -380 31 -111 137 -358 185 -434 67 -103 180 -225
260 -283 86 -61 228 -129 317 -152 36 -10 107 -31 159 -47 246 -78 425 -70
738 31 67 22 132 40 143 40 28 0 70 -22 144 -77 33 -25 92 -61 131 -79 60 -29
80 -34 145 -34 41 0 129 9 195 20 66 12 208 25 315 30 107 5 213 14 235 21
137 39 206 132 156 212 -11 19 -17 38 -13 42 4 5 2 5 -5 1 -6 -3 -27 3 -46 14
-19 11 -67 24 -110 30 -98 12 -128 20 -121 31 3 5 -2 6 -10 3 -34 -13 -144 81
-132 113 3 8 2 12 -3 9 -5 -3 -19 15 -32 42 -23 45 -24 58 -27 297 -3 193 1
279 14 380 15 114 17 217 15 825 -2 589 0 711 13 798 9 57 21 198 26 315 5
117 16 241 24 277 8 36 22 155 31 265 8 110 21 257 27 326 15 170 8 261 -25
324 -45 89 -123 145 -226 165 -50 9 -338 12 -406 3z m-541 -2003 c92 -15 161
-55 257 -150 95 -94 116 -131 148 -260 45 -181 47 -250 38 -955 l-4 -350 -35
-75 c-19 -41 -44 -107 -56 -145 -23 -77 -50 -109 -119 -144 -103 -51 -260 -67
-376 -36 -114 30 -394 175 -381 197 4 6 2 8 -4 4 -13 -8 -118 77 -114 93 1 7
-2 10 -6 7 -11 -6 -95 110 -95 130 0 7 -3 11 -7 9 -17 -11 -93 178 -116 292
-31 145 -44 425 -25 525 20 106 88 321 130 411 105 228 264 389 435 443 49 15
248 18 330 4z"/>
<path d="M680 7660 c-182 -18 -340 -86 -340 -145 0 -33 25 -50 155 -102 66
-26 156 -68 199 -93 137 -78 243 -215 266 -343 30 -163 46 -549 30 -737 -6
-80 -15 -212 -20 -295 -5 -82 -14 -197 -21 -255 -11 -90 -10 -125 4 -250 23
-192 22 -337 -4 -550 -20 -162 -21 -186 -9 -316 32 -351 -28 -652 -159 -792
-37 -40 -141 -88 -168 -78 -8 3 -11 1 -8 -4 3 -6 0 -10 -6 -10 -29 0 -196 -91
-228 -123 -59 -62 -39 -112 54 -137 57 -15 348 -32 425 -25 36 4 106 13 155
21 162 25 353 19 591 -21 115 -19 256 -48 313 -64 310 -90 518 -56 596 98 24
49 13 97 -35 142 -49 47 -100 63 -274 89 -156 24 -300 65 -290 82 4 7 2 8 -5
4 -32 -20 -160 109 -181 182 -11 41 -12 732 -2 1057 7 194 8 201 35 247 39 67
78 91 155 96 75 5 122 -10 236 -77 129 -75 200 -143 326 -308 63 -84 167 -219
231 -300 147 -187 206 -277 352 -539 65 -116 144 -245 177 -288 174 -234 377
-402 572 -474 32 -12 126 -31 210 -42 84 -11 178 -26 208 -32 37 -9 144 -13
320 -13 264 0 265 0 310 25 56 31 85 84 75 136 -7 39 -59 103 -111 135 -19 11
-31 26 -28 31 4 6 2 8 -4 5 -15 -10 -43 3 -35 16 3 6 1 7 -6 3 -14 -9 -152 63
-285 150 -129 85 -188 133 -179 148 3 6 3 8 -1 4 -10 -9 -83 74 -153 175 -31
45 -117 143 -190 218 -73 74 -130 139 -126 144 5 4 3 5 -3 2 -14 -8 -141 161
-277 368 -58 88 -150 221 -206 295 -56 74 -99 141 -96 148 3 7 0 10 -5 7 -11
-7 -60 85 -71 134 -15 68 39 143 169 232 196 134 326 263 378 373 18 39 53
137 79 219 42 137 45 155 45 259 0 124 -28 308 -62 415 -12 37 -22 74 -21 80
0 7 -3 11 -7 8 -11 -7 -22 24 -13 37 3 6 1 8 -4 5 -12 -7 -59 61 -54 78 1 6 0
7 -4 4 -3 -4 -27 16 -53 43 -94 101 -382 288 -520 338 -112 41 -398 115 -527
136 -85 15 -165 17 -545 14 -245 -2 -479 -3 -520 -3 -41 0 -127 5 -190 11
-125 13 -499 14 -620 2z m1602 -346 c218 -41 399 -155 522 -327 60 -84 89
-168 117 -333 28 -161 29 -297 5 -379 -24 -81 -97 -236 -107 -229 -5 3 -6 -1
-4 -8 7 -19 -42 -91 -112 -164 -39 -41 -83 -74 -130 -98 -80 -40 -216 -81
-239 -72 -8 3 -13 2 -10 -2 2 -4 -28 -16 -67 -26 -40 -10 -115 -37 -167 -60
-88 -38 -102 -41 -185 -41 -80 0 -95 3 -135 27 -25 14 -58 40 -75 58 -28 30
-30 36 -33 128 -2 61 2 128 12 181 20 104 20 172 1 281 -19 108 -19 226 1 315
44 201 59 296 73 463 18 203 74 273 241 306 41 8 204 -3 292 -20z"/>
<path d="M26645 7647 c-99 -33 -322 -169 -363 -221 -10 -14 -22 -23 -26 -21
-3 3 -4 2 -2 -1 2 -3 -2 -21 -10 -39 -20 -48 -17 -122 6 -173 60 -132 279
-246 470 -245 144 2 252 44 341 134 100 101 132 215 93 331 -10 29 -17 58 -15
63 1 6 0 7 -4 3 -8 -8 -71 62 -67 75 1 4 -2 6 -7 3 -5 -4 -29 7 -53 24 -92 64
-272 97 -363 67z"/>
<path d="M17630 6623 c-29 -11 -70 -41 -118 -88 -40 -39 -75 -69 -78 -66 -3 3
-4 1 -2 -4 1 -6 -25 -50 -59 -100 -135 -196 -212 -270 -382 -368 -99 -57 -118
-71 -138 -111 -18 -35 -11 -83 18 -120 11 -14 50 -45 87 -69 105 -68 156 -124
178 -199 18 -59 19 -94 16 -503 -2 -242 -7 -476 -13 -520 -28 -241 16 -689 82
-832 28 -58 115 -146 192 -192 156 -92 530 -165 726 -141 185 23 294 75 431
207 99 95 160 188 160 246 0 50 -23 93 -60 112 -57 30 -108 29 -280 -5 -152
-30 -169 -32 -242 -21 -57 7 -99 21 -148 47 -70 36 -127 95 -114 116 4 6 3 8
-3 5 -13 -8 -26 20 -16 35 3 6 1 8 -4 5 -22 -14 -27 34 -34 298 -4 149 -11
378 -14 510 -7 218 -5 251 14 361 11 66 25 167 30 225 10 114 20 147 58 198
43 56 68 61 309 61 120 0 246 5 280 11 85 15 160 61 202 124 30 44 33 56 30
102 -3 35 -14 65 -33 95 -16 24 -28 47 -27 51 1 5 -2 6 -7 3 -5 -4 -26 5 -47
19 -20 14 -41 25 -46 25 -5 0 -7 3 -5 8 6 8 -9 9 -156 14 -59 2 -107 1 -107
-2 0 -9 -205 -42 -266 -42 -79 -1 -94 16 -105 123 -23 210 -27 231 -55 287
-24 46 -38 61 -76 81 -60 30 -121 35 -178 14z"/>
<path d="M27010 6309 c-19 -3 -100 -26 -180 -52 -80 -25 -203 -62 -275 -82
-146 -39 -283 -102 -315 -143 -18 -22 -21 -37 -17 -74 5 -54 29 -95 127 -217
124 -152 165 -242 197 -431 14 -82 17 -248 23 -1185 5 -720 11 -1134 19 -1220
25 -269 0 -550 -71 -800 -39 -138 -40 -144 -48 -370 -10 -260 -17 -303 -62
-395 -37 -75 -150 -194 -243 -257 -79 -53 -223 -125 -235 -118 -6 4 -10 2 -10
-3 0 -14 -79 -44 -93 -36 -7 4 -8 3 -4 -1 9 -11 -101 -67 -114 -59 -5 3 -8 2
-7 -3 4 -11 -90 -101 -98 -94 -3 3 -4 1 -3 -4 1 -6 -3 -28 -10 -50 -17 -55 2
-111 48 -142 69 -47 132 -58 316 -58 195 1 241 12 375 91 201 120 346 241 494
413 221 257 279 365 322 596 13 73 15 117 8 230 -4 77 -8 262 -8 410 l-1 270
39 151 39 152 -13 145 c-14 158 -10 435 11 704 9 118 9 181 -1 285 -20 224
-23 476 -6 728 10 156 13 304 9 440 -5 198 -4 212 28 415 52 326 43 524 -28
664 -41 80 -119 117 -213 100z"/>
<path d="M15386 6269 c-167 -22 -478 -159 -644 -284 -155 -116 -235 -197 -314
-314 -39 -58 -75 -105 -79 -104 -5 2 -6 -3 -4 -10 3 -7 -22 -54 -55 -106 -80
-124 -105 -174 -132 -268 -22 -73 -23 -96 -23 -383 0 -287 1 -309 22 -375 12
-38 36 -135 52 -215 47 -225 111 -340 322 -572 83 -92 196 -170 287 -198 59
-18 231 -58 402 -91 71 -15 295 -5 420 17 168 29 359 105 486 192 122 82 270
266 294 364 20 77 -9 142 -78 177 -23 12 -154 12 -146 0 2 -4 -11 -13 -29 -20
-17 -7 -79 -45 -137 -83 -200 -133 -366 -206 -469 -206 -52 0 -141 26 -141 42
0 5 -4 7 -9 4 -14 -9 -42 5 -34 17 3 5 1 7 -5 4 -15 -10 -43 3 -35 16 4 6 1 7
-6 3 -29 -19 -231 168 -214 198 3 6 3 8 -2 4 -22 -20 -150 224 -184 352 -11
41 -32 171 -46 289 -23 183 -26 241 -23 410 l4 196 48 135 c86 245 148 336
313 463 121 93 234 121 319 81 54 -26 131 -101 184 -179 119 -176 355 -320
494 -302 73 10 147 57 191 120 33 49 40 67 43 121 14 211 -165 388 -470 468
-26 6 -44 16 -41 21 3 6 1 7 -5 3 -6 -4 -58 0 -116 9 -112 16 -327 18 -440 4z"/>
<path d="M6196 6260 c-43 -5 -102 -17 -130 -26 -117 -38 -397 -194 -511 -285
-82 -64 -202 -191 -262 -277 -28 -39 -54 -68 -58 -64 -5 4 -5 2 -2 -5 4 -6
-11 -43 -33 -81 -91 -162 -154 -370 -186 -617 -19 -152 -15 -231 21 -411 50
-245 169 -486 355 -718 179 -221 475 -385 773 -425 163 -23 467 -5 597 34 118
36 396 192 528 297 181 145 235 397 98 462 -19 9 -45 16 -58 16 -35 0 -125
-28 -181 -56 -26 -14 -53 -22 -59 -18 -6 4 -8 3 -5 -3 9 -14 -163 -82 -252
-99 -92 -18 -317 -31 -309 -18 3 5 -17 9 -45 9 -65 1 -201 41 -191 57 4 7 3 8
-4 4 -7 -4 -58 17 -113 45 -77 39 -121 71 -177 125 -50 48 -72 76 -67 84 5 8
4 11 -3 6 -13 -8 -92 121 -164 269 l-53 109 0 172 0 172 30 44 c17 24 49 53
75 66 44 23 49 24 210 16 242 -11 379 -10 840 9 502 20 554 27 628 83 77 59
92 158 47 302 -14 45 -23 87 -19 94 4 6 3 8 -3 5 -5 -3 -18 11 -27 31 -48 101
-169 232 -316 342 -69 52 -286 160 -390 195 -44 15 -117 32 -163 40 -113 18
-324 26 -421 15z m272 -284 c249 -67 406 -275 333 -441 -55 -124 -124 -147
-456 -150 -121 -2 -244 -8 -274 -14 -29 -6 -86 -11 -125 -11 -134 0 -197 58
-181 168 7 47 69 146 162 257 49 59 72 77 143 112 180 90 280 110 398 79z"/>
<path d="M28654 6230 c-173 -12 -260 -43 -393 -138 -75 -53 -208 -181 -268
-259 -23 -29 -43 -50 -47 -47 -3 2 -4 1 -1 -2 2 -4 -10 -34 -28 -68 -31 -59
-32 -65 -31 -181 1 -146 39 -346 85 -445 53 -113 96 -159 267 -284 192 -140
253 -169 414 -202 208 -43 327 -93 429 -181 74 -63 100 -95 138 -171 60 -120
55 -204 -20 -317 -87 -129 -237 -210 -415 -222 -58 -4 -95 -1 -136 11 -61 18
-181 92 -172 107 3 5 1 8 -5 7 -18 -5 -197 222 -253 320 -71 126 -117 148
-202 99 -116 -67 -181 -355 -120 -532 24 -70 111 -153 206 -198 92 -44 291
-112 384 -131 109 -23 338 -37 420 -25 93 13 237 52 308 83 155 69 333 246
400 399 84 191 97 522 27 724 -16 48 -27 91 -24 96 3 6 2 7 -4 4 -6 -4 -18 12
-29 34 -10 23 -33 62 -50 87 -18 25 -31 49 -28 54 3 5 0 7 -8 6 -7 -2 -12 4
-10 12 2 8 0 12 -4 8 -4 -4 -33 17 -65 47 -71 65 -157 108 -269 134 -47 11
-109 30 -139 41 -73 28 -158 47 -269 60 -52 6 -110 17 -129 25 -49 21 -182
158 -213 220 -21 42 -25 64 -25 140 0 152 47 224 188 291 77 37 87 39 177 39
82 0 103 -4 153 -27 81 -38 157 -115 227 -228 92 -150 164 -203 254 -186 47 9
82 39 110 94 29 58 33 77 46 222 6 63 18 154 26 203 14 83 14 90 -5 133 -25
55 -72 79 -176 89 -38 4 -124 15 -190 26 -236 37 -339 42 -531 29z"/>
<path d="M12485 6194 c-16 -3 -63 -11 -102 -20 -40 -8 -78 -12 -84 -8 -7 4 -9
3 -6 -3 3 -5 -25 -19 -62 -31 -100 -32 -260 -114 -362 -183 -97 -67 -289 -227
-330 -276 -15 -18 -30 -30 -33 -27 -3 2 -4 1 -1 -2 2 -4 -9 -24 -25 -45 -49
-61 -81 -142 -81 -201 0 -69 11 -97 55 -136 50 -44 102 -55 228 -50 99 4 113
7 182 42 80 39 125 84 166 166 19 38 24 67 29 180 8 154 17 176 85 213 34 18
57 22 141 22 90 0 106 -3 160 -29 86 -43 162 -123 212 -226 87 -176 116 -315
94 -435 -13 -72 -58 -168 -73 -159 -7 4 -8 2 -4 -4 8 -14 -45 -75 -88 -101
-18 -11 -93 -40 -168 -65 -74 -25 -165 -61 -201 -81 -36 -20 -143 -67 -238
-105 -198 -80 -273 -125 -382 -230 -43 -42 -80 -73 -83 -70 -3 3 -4 0 -2 -5 4
-14 -38 -66 -47 -57 -3 4 -5 3 -4 -3 2 -5 -12 -32 -29 -60 -66 -102 -96 -265
-72 -403 25 -148 132 -301 251 -361 90 -45 152 -54 329 -49 182 6 206 13 480
146 220 107 235 111 294 82 25 -12 64 -43 87 -68 99 -113 186 -152 384 -172
286 -30 451 18 586 169 102 114 140 241 88 297 -45 49 -93 64 -212 64 -69 0
-119 5 -140 14 -43 18 -112 90 -102 107 5 8 4 10 -4 5 -7 -5 -17 6 -28 31 -24
57 -28 235 -10 416 16 145 23 253 48 702 13 232 8 280 -46 458 -20 64 -33 123
-29 129 4 7 4 10 -1 6 -4 -4 -23 22 -41 58 -83 165 -204 270 -379 330 -72 24
-96 27 -240 30 -88 1 -173 0 -190 -2z m245 -1514 c19 -19 20 -33 20 -204 0
-196 -13 -289 -51 -375 -29 -67 -80 -142 -90 -135 -5 3 -8 0 -7 -7 7 -32 -208
-109 -303 -109 -39 0 -115 41 -111 59 1 7 -2 10 -7 7 -14 -9 -63 35 -57 51 3
8 2 11 -4 8 -25 -15 -60 112 -60 221 0 66 5 89 25 130 46 92 101 138 251 209
75 36 162 80 194 100 120 73 162 83 200 45z"/>
<path d="M20399 6160 c-263 -19 -480 -102 -716 -272 -178 -128 -286 -251 -399
-455 -28 -51 -55 -89 -59 -85 -5 4 -5 2 -1 -5 4 -7 -2 -30 -14 -52 -27 -53
-66 -174 -96 -296 -21 -87 -24 -123 -24 -277 0 -326 25 -394 279 -768 128
-188 200 -261 369 -374 206 -137 275 -163 502 -191 145 -18 560 -21 690 -5
190 23 397 89 559 179 143 79 337 284 438 461 41 72 127 305 153 411 29 121
45 348 32 457 -11 89 -91 370 -143 500 -16 41 -26 79 -22 85 3 7 3 9 -2 5 -10
-10 -77 100 -69 113 3 5 1 8 -4 7 -14 -4 -74 80 -67 93 4 5 3 8 -2 7 -4 -1
-48 38 -98 87 -49 50 -127 114 -172 144 -46 29 -80 58 -76 64 3 6 1 7 -5 3 -7
-4 -31 4 -54 18 -67 39 -170 75 -328 113 -137 33 -156 35 -350 38 -113 2 -257
-1 -321 -5z m211 -265 c242 -44 323 -101 540 -383 207 -268 219 -298 240 -607
5 -82 15 -197 21 -255 12 -120 5 -268 -17 -355 -21 -81 -64 -176 -77 -168 -6
3 -7 1 -3 -5 12 -20 -78 -149 -167 -241 -88 -90 -294 -212 -333 -197 -8 3 -12
2 -9 -3 8 -13 -97 -34 -177 -35 -38 -1 -68 -5 -68 -9 0 -15 -84 4 -134 31 -26
15 -68 44 -92 65 -66 58 -175 187 -168 198 3 5 0 8 -8 7 -7 -2 -12 3 -10 10 1
6 -2 11 -7 10 -14 -5 -93 100 -85 113 4 7 3 9 -3 6 -19 -12 -99 161 -148 318
l-47 150 6 333 7 333 35 122 c47 164 60 188 172 319 141 165 175 195 254 234
86 41 102 41 278 9z"/>
<path d="M23240 6109 c-19 -5 -115 -48 -212 -96 -98 -47 -191 -86 -207 -87
-16 -1 -27 -4 -25 -8 2 -3 -18 -14 -45 -23 -56 -18 -178 -100 -210 -141 -36
-46 -28 -64 85 -190 256 -287 280 -363 276 -889 -4 -407 -25 -753 -49 -804
-11 -21 -51 -62 -98 -99 -191 -151 -225 -189 -225 -252 0 -67 59 -113 190
-149 66 -19 103 -21 320 -21 135 0 284 5 330 11 47 6 182 11 300 12 210 2 217
3 265 27 29 15 57 39 69 59 41 70 -23 162 -138 201 -41 13 -64 26 -60 32 4 7
2 8 -5 4 -18 -12 -136 60 -180 110 -107 122 -112 162 -109 870 l3 569 29 63
c45 97 150 182 225 182 49 0 117 -28 197 -80 116 -75 172 -95 279 -95 78 0 97
4 145 27 75 37 127 91 164 168 28 59 31 74 31 165 0 142 -20 199 -103 287 -58
61 -72 70 -135 89 -53 17 -85 20 -136 16 -101 -8 -227 -43 -315 -87 -43 -22
-83 -37 -89 -33 -5 3 -7 1 -4 -5 8 -12 -128 -102 -154 -102 -27 0 -53 33 -66
83 -17 61 -71 138 -116 163 -20 11 -35 22 -33 25 9 9 -161 7 -194 -2z"/>
<path d="M25156 4159 c2 -4 -8 -10 -24 -14 -37 -9 -117 -61 -146 -96 -13 -16
-32 -46 -42 -68 -10 -22 -20 -38 -24 -36 -4 2 -6 -53 -6 -123 1 -122 2 -129
32 -187 81 -154 295 -264 494 -253 94 5 160 39 230 115 106 116 131 312 58
457 -48 95 -179 183 -307 206 -64 11 -272 10 -265 -1z"/>
</g>
</svg>
