<?xml version="1.0" encoding="UTF-8" standalone="no"?>
<!DOCTYPE svg PUBLIC "-//W3C//DTD SVG 20010904//EN" "http://www.w3.org/TR/2001/REC-SVG-20010904/DTD/svg10.dtd">
<svg version="1.0" xmlns="http://www.w3.org/2000/svg" width="200.000000pt" height="51.000000pt" viewBox="0 0 200.000000 51.000000" preserveAspectRatio="xMidYMid meet">
<metadata>
Created by potrace 1.10, written by Peter Selinger 2001-2011
</metadata>
<g transform="translate(0.000000,51.000000) scale(0.100000,-0.100000)" fill="#ffffff" stroke="none">
<path d="M645 490 c-4 -6 1 -17 10 -24 14 -10 16 -21 11 -48 -6 -31 -10 -35 -37 -36 -63 -2 -106 -55 -94 -118 7 -42 29 -58 79 -59 23 -1 46 -4 51 -7 14 -8 75 3 75 13 0 5 -7 9 -16 9 -14 0 -15 17 -12 138 l3 137 -32 3 c-17 2 -34 -2 -38 -8z m10 -136 c17 -17 19 -85 3 -116 -21 -42 -78 0 -78 57 0 22 8 43 20 55 24 24 34 25 55 4z"/>
<path d="M27 484 c-4 -4 3 -12 16 -18 20 -11 22 -19 23 -106 2 -118 -3 -140 -27 -140 -10 0 -19 -4 -19 -10 0 -5 25 -11 55 -12 30 -1 63 -2 72 -2 29 -2 26 22 -4 26 -26 3 -28 6 -31 56 -3 46 -1 52 17 52 12 0 31 -16 48 -42 51 -75 78 -98 117 -98 41 0 47 14 14 31 -25 14 -49 39 -79 87 l-21 32 21 18 c34 29 32 84 -5 108 -26 17 -183 31 -197 18z m169 -59 c8 -32 -10 -61 -46 -74 -25 -8 -32 -7 -37 5 -5 15 3 90 13 105 9 15 64 -13 70 -36z"/>
<path d="M1760 475 c-9 -11 -10 -19 -3 -26 17 -17 48 -6 48 16 0 25 -28 31 -45 10z"/>
<path d="M1146 388 c-26 -27 -28 -31 -13 -40 13 -7 16 -19 12 -54 -5 -59 7 -90 39 -98 31 -8 66 8 66 29 0 11 -8 13 -30 9 l-30 -6 0 66 0 67 28 -3 c19 -2 27 2 27 12 0 10 -8 14 -28 12 -22 -2 -27 1 -25 14 5 28 -15 25 -46 -8z"/>
<path d="M998 385 c-57 -32 -73 -120 -31 -167 22 -24 84 -23 114 1 32 26 16 39 -21 18 -28 -17 -29 -17 -49 9 -26 33 -27 85 -2 115 l20 24 21 -22 c23 -25 35 -29 46 -12 18 30 -57 56 -98 34z"/>
<path d="M1767 388 c-26 -9 -27 -11 -13 -27 13 -14 16 -46 17 -154 1 -137 -5 -167 -36 -167 -7 0 -18 -7 -25 -15 -11 -13 -8 -15 18 -15 21 0 39 9 57 27 22 25 25 37 26 103 0 41 2 117 4 168 4 99 4 99 -48 80z"/>
<path d="M367 365 c-41 -42 -41 -102 0 -147 31 -35 133 -13 133 28 0 11 -4 12 -19 4 -32 -17 -69 -12 -85 12 -24 33 -21 59 7 57 50 -5 107 2 107 11 0 6 -11 22 -25 35 -33 34 -84 34 -118 0z m93 -15 c0 -6 -3 -11 -7 -11 -76 -11 -92 -4 -51 25 22 15 58 7 58 -14z"/>
<path d="M793 370 c-37 -22 -44 -50 -13 -50 11 0 21 5 21 10 1 6 3 15 4 20 1 6 3 12 4 15 0 3 10 1 21 -5 35 -19 24 -53 -23 -75 -72 -34 -59 -105 14 -78 17 7 31 7 35 2 9 -15 61 -10 68 7 9 24 8 26 -14 19 -19 -6 -20 -2 -20 62 0 96 -27 116 -97 73z m57 -105 c0 -29 -25 -44 -43 -26 -9 10 -7 17 12 32 30 24 31 24 31 -6z"/>
<path d="M1331 378 c-35 -19 -65 -72 -57 -104 12 -46 50 -74 101 -74 70 0 103 39 95 115 -5 52 -89 90 -139 63z m78 -34 c39 -50 18 -124 -36 -124 -43 0 -65 96 -31 137 17 21 45 15 67 -13z"/>
<path d="M1527 373 c-26 -14 -27 -16 -13 -32 21 -23 22 -109 1 -117 -33 -13 -12 -24 43 -23 55 0 56 1 35 16 -19 13 -23 25 -23 70 l0 54 35 -7 c31 -6 35 -4 35 15 0 26 -26 38 -49 24 -11 -7 -19 -7 -26 2 -8 9 -16 9 -38 -2z"/>
<path d="M1876 371 c-29 -32 -17 -63 32 -86 32 -15 42 -25 40 -40 -4 -28 -44 -32 -58 -6 -15 28 -30 26 -30 -3 0 -39 73 -51 103 -18 33 36 17 80 -35 98 -37 12 -49 40 -22 51 12 4 22 0 32 -15 20 -30 32 -27 32 8 0 28 -2 30 -38 30 -26 0 -45 -7 -56 -19z"/>
<path d="M1662 228 c4 -31 53 -34 53 -3 0 15 -8 21 -28 23 -25 3 -28 0 -25 -20z"/>
</g>
</svg>